<svg xmlns="http://www.w3.org/2000/svg" viewBox="0 0 1200 630" width="1200" height="630">
  <!-- Background -->
  <rect width="1200" height="630" fill="#1a1a2e"/>
  <!-- Orange bottom border accent -->
  <rect y="590" width="1200" height="40" fill="#e05c1a"/>
  <!-- Subtle grid lines -->
  <line x1="0" y1="210" x2="1200" y2="210" stroke="rgba(255,255,255,0.04)" stroke-width="1"/>
  <line x1="0" y1="420" x2="1200" y2="420" stroke="rgba(255,255,255,0.04)" stroke-width="1"/>

  <!-- Shield Icon (large, left side) -->
  <g transform="translate(120, 140)">
    <path d="M100 20 L180 52 L180 130 Q180 195 100 220 Q20 195 20 130 L20 52 Z" fill="#e05c1a"/>
    <path d="M100 38 L164 64 L164 130 Q164 185 100 205 Q36 185 36 130 L36 64 Z" fill="#c94e14"/>
    <path d="M72 128 L90 150 L130 105" stroke="white" stroke-width="10" stroke-linecap="round" stroke-linejoin="round" fill="none"/>
    <circle cx="100" cy="30" r="10" fill="#f2a900"/>
  </g>

  <!-- Brand name -->
  <text x="360" y="260" font-family="Georgia, serif" font-size="82" font-weight="900" fill="white" letter-spacing="-1">Mera<tspan fill="#e05c1a">Haq</tspan></text>

  <!-- Tagline -->
  <text x="362" y="320" font-family="Courier New, monospace" font-size="22" fill="rgba(255,255,255,0.45)" letter-spacing="4">YOUR RIGHTS · YOUR VOICE · FREE FOR EVERY INDIAN</text>

  <!-- Feature pills -->
  <rect x="362" y="380" width="210" height="44" rx="22" fill="rgba(224,92,26,0.2)" stroke="#e05c1a" stroke-width="1.5"/>
  <text x="467" y="408" text-anchor="middle" font-family="Courier New, monospace" font-size="15" fill="#e05c1a" font-weight="700">GOVT SCHEMES</text>

  <rect x="590" y="380" width="160" height="44" rx="22" fill="rgba(242,169,0,0.15)" stroke="#f2a900" stroke-width="1.5"/>
  <text x="670" y="408" text-anchor="middle" font-family="Courier New, monospace" font-size="15" fill="#f2a900" font-weight="700">RTI TOOL</text>

  <rect x="768" y="380" width="180" height="44" rx="22" fill="rgba(255,255,255,0.06)" stroke="rgba(255,255,255,0.2)" stroke-width="1.5"/>
  <text x="858" y="408" text-anchor="middle" font-family="Courier New, monospace" font-size="15" fill="rgba(255,255,255,0.7)" font-weight="700">YOUR RIGHTS</text>

  <!-- URL -->
  <text x="362" y="545" font-family="Courier New, monospace" font-size="20" fill="rgba(255,255,255,0.3)" letter-spacing="2">merahaq.online</text>
</svg>
